<svg width="50" height="50" viewBox="0 0 50 50" fill="none" xmlns="http://www.w3.org/2000/svg">
<path opacity="0.5" d="M45.8332 20.8332H4.1665V39.5832C4.1665 41.2408 4.82498 42.8305 5.99709 44.0026C7.16919 45.1747 8.7589 45.8332 10.4165 45.8332H39.5832C41.2408 45.8332 42.8305 45.1747 44.0026 44.0026C45.1747 42.8305 45.8332 41.2408 45.8332 39.5832V20.8332ZM14.5832 16.6665C14.0306 16.6665 13.5007 16.447 13.11 16.0563C12.7193 15.6656 12.4998 15.1357 12.4998 14.5832V6.24984C12.4998 5.6973 12.7193 5.1674 13.11 4.7767C13.5007 4.386 14.0306 4.1665 14.5832 4.1665C15.1357 4.1665 15.6656 4.386 16.0563 4.7767C16.447 5.1674 16.6665 5.6973 16.6665 6.24984V14.5832C16.6665 15.1357 16.447 15.6656 16.0563 16.0563C15.6656 16.447 15.1357 16.6665 14.5832 16.6665ZM35.4165 16.6665C34.864 16.6665 34.3341 16.447 33.9434 16.0563C33.5527 15.6656 33.3332 15.1357 33.3332 14.5832V6.24984C33.3332 5.6973 33.5527 5.1674 33.9434 4.7767C34.3341 4.386 34.864 4.1665 35.4165 4.1665C35.969 4.1665 36.4989 4.386 36.8896 4.7767C37.2803 5.1674 37.4998 5.6973 37.4998 6.24984V14.5832C37.4998 15.1357 37.2803 15.6656 36.8896 16.0563C36.4989 16.447 35.969 16.6665 35.4165 16.6665Z" fill="black"/>
<path d="M39.5832 8.33301H37.4998V14.583C37.4998 15.1355 37.2803 15.6654 36.8896 16.0561C36.4989 16.4468 35.969 16.6663 35.4165 16.6663C34.864 16.6663 34.3341 16.4468 33.9434 16.0561C33.5527 15.6654 33.3332 15.1355 33.3332 14.583V8.33301H16.6665V14.583C16.6665 15.1355 16.447 15.6654 16.0563 16.0561C15.6656 16.4468 15.1357 16.6663 14.5832 16.6663C14.0306 16.6663 13.5007 16.4468 13.11 16.0561C12.7193 15.6654 12.4998 15.1355 12.4998 14.583V8.33301H10.4165C8.7589 8.33301 7.16919 8.99149 5.99709 10.1636C4.82498 11.3357 4.1665 12.9254 4.1665 14.583V20.833H45.8332V14.583C45.8332 12.9254 45.1747 11.3357 44.0026 10.1636C42.8305 8.99149 41.2408 8.33301 39.5832 8.33301Z" fill="black"/>
<path d="M19.39 34.63C19.6167 34.45 19.72 34.3667 19.7 34.38C20.3533 33.84 20.8667 33.3967 21.24 33.05C21.62 32.7033 21.94 32.34 22.2 31.96C22.46 31.58 22.59 31.21 22.59 30.85C22.59 30.5767 22.5267 30.3633 22.4 30.21C22.2733 30.0567 22.0833 29.98 21.83 29.98C21.5767 29.98 21.3767 30.0767 21.23 30.27C21.09 30.4567 21.02 30.7233 21.02 31.07H19.37C19.3833 30.5033 19.5033 30.03 19.73 29.65C19.9633 29.27 20.2667 28.99 20.64 28.81C21.02 28.63 21.44 28.54 21.9 28.54C22.6933 28.54 23.29 28.7433 23.69 29.15C24.0967 29.5567 24.3 30.0867 24.3 30.74C24.3 31.4533 24.0567 32.1167 23.57 32.73C23.0833 33.3367 22.4633 33.93 21.71 34.51H24.41V35.9H19.39V34.63ZM25.1629 32.25C25.1629 31.1033 25.3829 30.2 25.8229 29.54C26.2696 28.88 26.9862 28.55 27.9729 28.55C28.9596 28.55 29.6729 28.88 30.1129 29.54C30.5596 30.2 30.7829 31.1033 30.7829 32.25C30.7829 33.41 30.5596 34.32 30.1129 34.98C29.6729 35.64 28.9596 35.97 27.9729 35.97C26.9862 35.97 26.2696 35.64 25.8229 34.98C25.3829 34.32 25.1629 33.41 25.1629 32.25ZM29.1029 32.25C29.1029 31.5767 29.0296 31.06 28.8829 30.7C28.7362 30.3333 28.4329 30.15 27.9729 30.15C27.5129 30.15 27.2096 30.3333 27.0629 30.7C26.9162 31.06 26.8429 31.5767 26.8429 32.25C26.8429 32.7033 26.8696 33.08 26.9229 33.38C26.9762 33.6733 27.0829 33.9133 27.2429 34.1C27.4096 34.28 27.6529 34.37 27.9729 34.37C28.2929 34.37 28.5329 34.28 28.6929 34.1C28.8596 33.9133 28.9696 33.6733 29.0229 33.38C29.0762 33.08 29.1029 32.7033 29.1029 32.25Z" fill="black"/>
</svg>
