<svg width="32" height="34" viewBox="0 0 32 34" fill="none" xmlns="http://www.w3.org/2000/svg">
<path d="M16.6272 30.4723H16.4958C14.6937 30.4581 12.9125 30.072 11.2564 29.3367C9.60028 28.6013 8.10263 27.5315 6.85113 26.1898C4.53041 23.6221 3.21121 20.2559 3.14812 16.7411C3.08503 13.2262 4.28252 9.81171 6.50949 7.15659C7.94422 5.49301 9.74787 4.21471 11.7655 3.43152C12.0009 3.33779 12.2574 3.31615 12.5044 3.36919C12.7514 3.42223 12.9784 3.54769 13.1583 3.73061C13.3249 3.90643 13.4423 4.12577 13.4978 4.36521C13.5534 4.60466 13.545 4.85521 13.4737 5.09013C12.7535 7.13067 12.6109 9.3414 13.0624 11.4629C13.5139 13.5844 14.5409 15.5286 16.0228 17.0675C17.5186 18.596 19.4022 19.655 21.4555 20.1218C23.5089 20.5885 25.6481 20.444 27.6254 19.7049C27.8607 19.6192 28.1148 19.6046 28.3579 19.6628C28.6009 19.721 28.823 19.8496 28.998 20.0335C29.1731 20.2175 29.2939 20.4492 29.3463 20.7016C29.3987 20.954 29.3806 21.2166 29.2941 21.4587C28.6229 23.3127 27.5743 24.9957 26.2194 26.3937C24.9591 27.6938 23.4628 28.7234 21.8167 29.4234C20.1705 30.1233 18.407 30.4798 16.6272 30.4723Z" fill="#343434"/>
</svg>
