<svg width="41" height="44" viewBox="0 0 41 44" fill="none" xmlns="http://www.w3.org/2000/svg">
<path d="M32.368 23.5812C32.4352 23.0497 32.4687 22.5006 32.4687 21.916C32.4687 21.3491 32.4352 20.7822 32.3512 20.2508L35.7595 17.4518C35.9064 17.3241 36.0067 17.1466 36.0435 16.9496C36.0802 16.7525 36.0511 16.5481 35.961 16.3712L32.7374 10.4899C32.6425 10.3119 32.4909 10.1752 32.3096 10.1039C32.1283 10.0325 31.9289 10.0312 31.7468 10.1001L27.7341 11.8008C26.8946 11.1276 26.0047 10.5607 25.0141 10.1356L24.4097 5.63598C24.38 5.4332 24.2823 5.24839 24.1344 5.11512C23.9865 4.98185 23.7983 4.90896 23.6038 4.90967H17.1566C16.7536 4.90967 16.4346 5.21083 16.3675 5.63598L15.763 10.1356C14.7724 10.5607 13.8658 11.1453 13.0431 11.8008L9.03037 10.1001C8.661 9.95842 8.24125 10.1001 8.03978 10.4899L4.83295 16.3712C4.63148 16.7432 4.69863 17.2038 5.03443 17.4518L8.44273 20.2508C8.35878 20.7822 8.29162 21.3668 8.29162 21.916C8.29162 22.4651 8.3252 23.0497 8.40915 23.5812L5.00085 26.3801C4.85398 26.5079 4.75363 26.6854 4.71689 26.8824C4.68015 27.0795 4.7093 27.2838 4.79937 27.4607L8.02299 33.3421C8.22446 33.7318 8.64421 33.8558 9.01358 33.7318L13.0263 32.0312C13.8658 32.7044 14.7556 33.2712 15.7462 33.6964L16.3507 38.196C16.4346 38.6211 16.7536 38.9223 17.1566 38.9223H23.6038C24.0068 38.9223 24.3425 38.6211 24.3929 38.196L24.9973 33.6964C25.9879 33.2712 26.8946 32.7044 27.7173 32.0312L31.73 33.7318C32.0994 33.8735 32.5191 33.7318 32.7206 33.3421L35.9442 27.4607C36.1457 27.071 36.0617 26.6281 35.7427 26.3801L32.368 23.5812ZM20.3802 28.2933C17.0558 28.2933 14.3359 25.4235 14.3359 21.916C14.3359 18.4084 17.0558 15.5386 20.3802 15.5386C23.7045 15.5386 26.4245 18.4084 26.4245 21.916C26.4245 25.4235 23.7045 28.2933 20.3802 28.2933Z" fill="black"/>
</svg>
