<svg width="41" height="37" viewBox="0 0 41 37" fill="none" xmlns="http://www.w3.org/2000/svg">
<path d="M30.7501 16.1565V9.24984C30.7501 7.554 29.2126 6.1665 27.3334 6.1665H6.83341C4.95425 6.1665 3.41675 7.554 3.41675 9.24984V27.7498C3.41675 29.4457 4.95425 30.8332 6.83341 30.8332H27.3334C29.2126 30.8332 30.7501 29.4457 30.7501 27.7498V20.8432L37.5834 26.979V10.0207L30.7501 16.1565ZM17.0834 12.3332C18.9626 12.3332 20.5001 13.7207 20.5001 15.4165C20.5001 17.1123 18.9626 18.4998 17.0834 18.4998C15.2042 18.4998 13.6667 17.1123 13.6667 15.4165C13.6667 13.7207 15.2042 12.3332 17.0834 12.3332ZM23.9167 24.6665H10.2501V23.7878C10.2501 22.539 11.0701 21.429 12.3342 20.9357C13.8322 20.3457 15.449 20.0412 17.0834 20.0412C18.7178 20.0412 20.3346 20.3457 21.8326 20.9357C22.4515 21.1744 22.979 21.572 23.3496 22.0791C23.7201 22.5862 23.9173 23.1803 23.9167 23.7878V24.6665Z" fill="#262626"/>
</svg>
