<svg width="40" height="36" viewBox="0 0 40 36" fill="none" xmlns="http://www.w3.org/2000/svg">
<path d="M17.6919 29.2974L17.6912 29.2968C13.4383 25.9146 9.95123 23.1373 7.52154 20.5303C5.09423 17.9258 3.79468 15.5659 3.79468 13.0295C3.79468 8.90132 7.49324 5.58301 12.3554 5.58301C15.0934 5.58301 17.7139 6.70339 19.4113 8.43793L19.7687 8.80309L20.126 8.43793C21.8235 6.70339 24.4439 5.58301 27.182 5.58301C32.0441 5.58301 35.7427 8.90132 35.7427 13.0295C35.7427 15.5659 34.4431 17.9258 32.0158 20.5303C29.5861 23.1373 26.099 25.9146 21.8462 29.2968L21.8454 29.2974L19.7687 30.9555L17.6919 29.2974Z" fill="#F30909" stroke="black"/>
</svg>
