<svg width="36" height="38" viewBox="0 0 36 38" fill="none" xmlns="http://www.w3.org/2000/svg">
<path d="M22.4677 17.7253L21.1418 19.1277C20.081 20.2252 19.4181 21.155 19.4181 23.4415H16.4715V22.6793C16.4715 20.9873 17.1345 19.463 18.1953 18.3655L20.0221 16.4449C20.5672 15.8961 20.8913 15.134 20.8913 14.2956C20.8913 13.4871 20.5809 12.7117 20.0283 12.1399C19.4757 11.5682 18.7263 11.247 17.9448 11.247C17.1633 11.247 16.4139 11.5682 15.8613 12.1399C15.3087 12.7117 14.9983 13.4871 14.9983 14.2956H12.0517C12.0517 12.6785 12.6726 11.1277 13.7778 9.98424C14.8829 8.84079 16.3819 8.19841 17.9448 8.19841C19.5077 8.19841 21.0067 8.84079 22.1118 9.98424C23.217 11.1277 23.8379 12.6785 23.8379 14.2956C23.8357 15.581 23.3434 16.8135 22.4677 17.7253ZM19.4181 29.5387H16.4715V26.4901H19.4181M17.9448 3.62549C16.0101 3.62549 14.0943 4.01976 12.3069 4.7858C10.5194 5.55183 8.8953 6.67463 7.52725 8.09008C4.76434 10.9487 3.21216 14.8258 3.21216 18.8685C3.21216 22.9113 4.76434 26.7884 7.52725 29.647C8.8953 31.0625 10.5194 32.1853 12.3069 32.9513C14.0943 33.7173 16.0101 34.1116 17.9448 34.1116C21.8521 34.1116 25.5995 32.5056 28.3624 29.647C31.1253 26.7884 32.6775 22.9113 32.6775 18.8685C32.6775 10.4391 26.0478 3.62549 17.9448 3.62549Z" fill="#262626"/>
</svg>
