<svg width="38" height="38" viewBox="0 0 38 38" fill="none" xmlns="http://www.w3.org/2000/svg">
<path d="M26.4798 23.4531C24.847 26.2823 22.1172 27.9062 19 27.9062C15.8828 27.9062 13.1575 26.2838 11.5202 23.4531C11.2942 23.0447 11.2376 22.5639 11.3624 22.1141C11.4873 21.6643 11.7838 21.2815 12.188 21.0481C12.5922 20.8147 13.0719 20.7492 13.5239 20.8659C13.9759 20.9826 14.364 21.272 14.6048 21.6719C15.1822 22.6709 16.5211 24.3438 19 24.3438C21.4789 24.3438 22.8178 22.6694 23.3952 21.6719C23.5098 21.4648 23.6645 21.2827 23.8503 21.1361C24.0361 20.9895 24.2492 20.8814 24.4772 20.818C24.7053 20.7547 24.9436 20.7375 25.1784 20.7673C25.4131 20.7972 25.6396 20.8735 25.8445 20.9918C26.0495 21.1102 26.2288 21.2682 26.3719 21.4566C26.5151 21.645 26.6193 21.8601 26.6785 22.0892C26.7376 22.3184 26.7505 22.557 26.7164 22.7912C26.6823 23.0254 26.6018 23.2504 26.4798 23.4531ZM35.0313 19C35.0313 22.1707 34.091 25.2702 32.3295 27.9065C30.568 30.5428 28.0642 32.5976 25.1349 33.8109C22.2056 35.0243 18.9822 35.3418 15.8725 34.7232C12.7627 34.1046 9.90621 32.5778 7.6642 30.3358C5.42219 28.0938 3.89536 25.2373 3.27679 22.1275C2.65822 19.0178 2.9757 15.7944 4.18906 12.8651C5.40243 9.93578 7.4572 7.43204 10.0935 5.6705C12.7298 3.90897 15.8293 2.96875 19 2.96875C23.2503 2.97346 27.3252 4.66398 30.3306 7.6694C33.336 10.6748 35.0265 14.7497 35.0313 19ZM31.4688 19C31.4688 16.5339 30.7375 14.1232 29.3674 12.0727C27.9973 10.0223 26.05 8.42411 23.7716 7.48038C21.4932 6.53665 18.9862 6.28972 16.5675 6.77083C14.1488 7.25194 11.9271 8.43948 10.1833 10.1833C8.43948 11.927 7.25195 14.1488 6.77084 16.5675C6.28973 18.9862 6.53665 21.4932 7.48038 23.7716C8.42411 26.0499 10.0223 27.9973 12.0727 29.3674C14.1232 30.7375 16.5339 31.4687 19 31.4688C22.3058 31.4652 25.4753 30.1504 27.8128 27.8128C30.1504 25.4753 31.4652 22.3058 31.4688 19ZM13.6563 18.4062C14.126 18.4062 14.5852 18.267 14.9757 18.006C15.3663 17.745 15.6707 17.3741 15.8505 16.9401C16.0302 16.5061 16.0773 16.0286 15.9856 15.5679C15.894 15.1072 15.6678 14.684 15.3356 14.3519C15.0035 14.0197 14.5803 13.7935 14.1196 13.7019C13.6589 13.6102 13.1814 13.6573 12.7474 13.837C12.3134 14.0168 11.9425 14.3212 11.6815 14.7118C11.4205 15.1023 11.2813 15.5615 11.2813 16.0312C11.2813 16.6611 11.5315 17.2652 11.9769 17.7106C12.4223 18.156 13.0264 18.4062 13.6563 18.4062ZM24.3438 13.6562C23.874 13.6562 23.4148 13.7955 23.0243 14.0565C22.6337 14.3175 22.3293 14.6884 22.1495 15.1224C21.9698 15.5564 21.9228 16.0339 22.0144 16.4946C22.106 16.9553 22.3322 17.3785 22.6644 17.7106C22.9965 18.0428 23.4197 18.269 23.8804 18.3606C24.3411 18.4523 24.8187 18.4052 25.2526 18.2255C25.6866 18.0457 26.0575 17.7413 26.3185 17.3507C26.5795 16.9602 26.7188 16.501 26.7188 16.0312C26.7188 15.4014 26.4685 14.7973 26.0231 14.3519C25.5777 13.9065 24.9736 13.6562 24.3438 13.6562Z" fill="#343434"/>
</svg>
