<svg width="24" height="33" viewBox="0 0 24 33" fill="none" xmlns="http://www.w3.org/2000/svg">
<path d="M23.4442 20.7046L21.0269 17.6593V13.625C21.0241 10.8371 20.2009 8.14945 18.7164 6.08185C17.2319 4.01426 15.1916 2.71355 12.9901 2.43125V0.125H11.2041V2.43125C9.0025 2.71355 6.9622 4.01426 5.47771 6.08185C3.99322 8.14945 3.17 10.8371 3.16723 13.625V17.6593L0.749925 20.7046C0.582447 20.9156 0.488332 21.2017 0.488281 21.5V24.875C0.488281 25.1734 0.582363 25.4595 0.74983 25.6705C0.917297 25.8815 1.14443 26 1.38126 26H7.63215V26.8741C7.61273 28.3013 8.01203 29.6874 8.75354 30.7667C9.49506 31.846 10.5266 32.5426 11.6506 32.723C12.2714 32.8006 12.8982 32.7136 13.4907 32.4676C14.0831 32.2217 14.6282 31.8222 15.0908 31.295C15.5534 30.7677 15.9233 30.1243 16.1767 29.4061C16.43 28.6879 16.5613 27.9109 16.562 27.125V26H22.8129C23.0497 26 23.2768 25.8815 23.4443 25.6705C23.6118 25.4595 23.7059 25.1734 23.7059 24.875V21.5C23.7058 21.2017 23.6117 20.9156 23.4442 20.7046ZM14.776 27.125C14.776 28.0201 14.4938 28.8786 13.9914 29.5115C13.489 30.1444 12.8076 30.5 12.0971 30.5C11.3866 30.5 10.7052 30.1444 10.2028 29.5115C9.70036 28.8786 9.41812 28.0201 9.41812 27.125V26H14.776V27.125ZM21.9199 23.75H2.27425V21.9657L4.69156 18.9204C4.85903 18.7094 4.95315 18.4233 4.9532 18.125V13.625C4.9532 11.2381 5.70586 8.94887 7.04559 7.26104C8.38533 5.57321 10.2024 4.625 12.0971 4.625C13.9917 4.625 15.8088 5.57321 17.1485 7.26104C18.4883 8.94887 19.2409 11.2381 19.2409 13.625V18.125C19.241 18.4233 19.3351 18.7094 19.5026 18.9204L21.9199 21.9657V23.75Z" fill="white"/>
</svg>
